<?xml version="1.0" standalone="no"?>
<!DOCTYPE svg PUBLIC "-//W3C//DTD SVG 20010904//EN"
 "http://www.w3.org/TR/2001/REC-SVG-20010904/DTD/svg10.dtd">
<svg version="1.0" xmlns="http://www.w3.org/2000/svg"
 width="700.000000pt" height="700.000000pt" viewBox="0 0 700.000000 700.000000"
 preserveAspectRatio="xMidYMid meet">
<metadata>
Created by potrace 1.11, written by Peter Selinger 2001-2013
</metadata>
<g transform="translate(0.000000,700.000000) scale(0.100000,-0.100000)"
fill="#000000" stroke="none">
<path d="M1739 6286 c-2 -2 -40 -7 -84 -10 -44 -4 -107 -12 -140 -17 -33 -6
-71 -12 -85 -14 -57 -10 -80 -17 -80 -25 0 -5 -4 -42 -10 -82 -5 -40 -12 -93
-14 -118 -2 -25 -5 -48 -5 -51 -1 -3 -60 -5 -132 -4 -82 0 -133 -3 -135 -10
-3 -11 -9 -47 -20 -135 -4 -30 -8 -62 -10 -70 -1 -8 -3 -30 -3 -47 l-1 -33
-160 0 -160 0 -1 -27 c0 -16 -2 -37 -4 -48 -2 -11 -7 -45 -10 -75 -5 -46 -24
-211 -40 -335 -2 -16 -6 -57 -10 -90 -3 -33 -8 -76 -10 -95 -3 -19 -7 -55 -10
-80 -3 -25 -7 -61 -10 -80 -2 -19 -7 -60 -10 -90 -3 -30 -10 -89 -15 -130 -5
-41 -12 -97 -15 -125 -3 -27 -8 -63 -10 -80 -2 -16 -7 -57 -10 -90 -4 -33 -8
-71 -10 -84 -3 -14 -7 -54 -11 -90 -3 -36 -7 -73 -9 -83 -2 -9 -7 -48 -10 -85
-4 -37 -9 -76 -10 -85 -2 -9 -7 -48 -10 -85 -4 -37 -9 -75 -10 -83 -2 -8 -6
-46 -11 -85 -4 -38 -8 -72 -9 -75 -1 -3 -5 -39 -9 -80 -4 -41 -9 -86 -11 -100
-2 -14 -9 -70 -15 -125 -6 -55 -13 -111 -15 -125 -3 -14 -7 -54 -10 -90 -4
-36 -9 -73 -11 -82 -9 -29 10 -20 53 25 84 89 326 304 488 432 364 289 832
536 1119 591 12 2 31 6 43 8 44 9 109 18 150 20 24 1 45 5 48 8 18 18 264 -62
423 -138 329 -156 574 -391 719 -691 l40 -83 19 43 c29 66 99 182 151 250 73
95 121 146 238 251 94 84 344 232 465 275 19 7 44 17 55 22 65 28 260 80 278
74 7 -2 39 -6 72 -9 201 -17 405 -80 640 -196 197 -97 452 -257 610 -381 194
-154 356 -295 504 -437 l93 -90 -7 66 c-3 37 -8 81 -10 97 -2 17 -6 53 -10 80
-3 28 -7 61 -9 75 -3 14 -7 56 -11 93 -3 37 -8 78 -10 89 -3 12 -7 46 -10 77
-3 31 -12 110 -20 176 -8 66 -17 144 -21 174 -3 30 -7 61 -9 70 -1 9 -6 48
-10 86 -4 39 -8 84 -11 100 -2 17 -6 50 -9 75 -3 25 -7 61 -10 80 -2 19 -9 80
-15 135 -6 55 -13 114 -15 130 -6 49 -24 195 -30 260 -4 33 -8 71 -10 85 -7
46 -14 104 -20 165 -3 33 -7 71 -10 85 -2 14 -7 46 -10 73 -3 26 -7 68 -10 95
-4 26 -10 80 -15 120 -6 40 -12 103 -15 140 -10 111 5 102 -170 102 l-153 0
-5 33 c-4 17 -11 79 -18 137 -6 58 -16 109 -21 115 -5 5 -64 10 -131 11 -148
1 -144 1 -144 17 -2 32 -36 225 -42 235 -6 10 -107 34 -201 47 -25 4 -58 8
-75 11 -16 2 -118 6 -225 8 -239 5 -381 -9 -575 -57 -236 -58 -445 -152 -629
-282 -118 -84 -291 -249 -376 -358 -29 -38 -56 -65 -60 -60 -4 4 -44 53 -88
108 -160 201 -337 345 -560 454 -129 64 -296 124 -402 145 -141 28 -183 35
-230 41 -59 7 -435 16 -441 11z m311 -2205 c0 -5 -8 -8 -17 -8 -59 3 -218 -23
-423 -68 l-25 -6 25 11 c39 17 194 49 305 63 133 17 135 17 135 8z m120 2 c0
-5 -25 -8 -55 -8 -30 0 -55 3 -55 8 0 4 25 7 55 7 30 0 55 -3 55 -7z m2698 0
c-10 -2 -26 -2 -35 0 -10 3 -2 5 17 5 19 0 27 -2 18 -5z m55 0 c-7 -2 -19 -2
-25 0 -7 3 -2 5 12 5 14 0 19 -2 13 -5z m-2710 -10 c-7 -2 -19 -2 -25 0 -7 3
-2 5 12 5 14 0 19 -2 13 -5z m2560 0 c-7 -2 -19 -2 -25 0 -7 3 -2 5 12 5 14 0
19 -2 13 -5z m250 0 c-7 -2 -19 -2 -25 0 -7 3 -2 5 12 5 14 0 19 -2 13 -5z
m74 -9 c-3 -3 -12 -4 -19 -1 -8 3 -5 6 6 6 11 1 17 -2 13 -5z m80 -10 c-3 -3
-12 -4 -19 -1 -8 3 -5 6 6 6 11 1 17 -2 13 -5z m53 -10 c0 -2 -9 -4 -20 -4
-11 0 -20 4 -20 9 0 5 9 7 20 4 11 -3 20 -7 20 -9z m70 -14 c20 -6 21 -8 5 -8
-11 0 -29 3 -40 8 -25 11 1 11 35 0z m64 -19 c4 -5 -3 -7 -14 -4 -23 6 -26 13
-6 13 8 0 17 -4 20 -9z m51 -11 c13 -6 15 -9 5 -9 -8 0 -22 4 -30 9 -18 12 -2
12 25 0z m-3835 -4 c0 -2 -39 -16 -87 -31 -207 -64 -543 -227 -715 -347 -16
-11 -28 -16 -28 -11 0 10 227 147 325 196 187 93 505 215 505 193z m3950 -36
c8 -5 11 -10 5 -10 -5 0 -17 5 -25 10 -8 5 -10 10 -5 10 6 0 17 -5 25 -10z
m91 -35 c19 -8 27 -14 19 -14 -14 0 -72 28 -59 29 4 0 22 -7 40 -15z m79 -30
c14 -8 21 -14 15 -14 -5 0 -21 6 -35 14 -14 8 -20 14 -15 14 6 0 21 -6 35 -14z
m168 -79 c99 -49 130 -66 259 -142 87 -51 116 -74 94 -74 -5 0 -11 4 -13 8 -9
23 -426 252 -458 252 -5 0 -12 4 -15 10 -9 14 29 -1 133 -54z"/>
<path d="M2176 3950 c-34 -84 -66 -183 -66 -206 0 -29 68 -160 111 -216 65
-82 151 -170 244 -249 22 -19 42 -36 45 -40 3 -3 44 -33 93 -68 48 -35 87 -65
87 -67 0 -2 -30 13 -67 33 -225 119 -412 289 -510 461 l-31 53 -6 -43 c-21
-154 -23 -141 28 -212 78 -110 185 -209 408 -378 23 -18 23 -18 -7 -5 -103 42
-282 174 -375 275 l-70 77 5 -45 c8 -78 27 -144 50 -175 62 -82 200 -209 335
-310 92 -68 94 -73 15 -30 -81 44 -115 65 -133 82 -7 7 -17 13 -22 13 -5 0
-15 6 -22 13 -44 41 -131 110 -123 97 19 -32 85 -129 97 -142 7 -7 40 -45 73
-83 33 -39 64 -75 70 -81 91 -98 198 -214 215 -234 12 -14 31 -36 44 -50 12
-14 42 -52 66 -85 25 -33 47 -62 50 -65 23 -21 99 -165 126 -237 65 -172 96
-421 70 -563 -27 -148 -111 -287 -273 -453 -105 -107 -248 -213 -334 -245 -13
-6 -45 -19 -69 -30 -39 -17 -100 -39 -135 -48 -5 -2 -62 -17 -125 -34 -63 -17
-124 -33 -135 -35 -79 -17 -161 -47 -195 -70 -22 -15 -38 -30 -35 -33 5 -5
114 -4 250 3 252 13 432 52 607 134 157 72 328 105 548 104 118 0 273 -10 336
-22 27 -5 51 -8 55 -5 3 2 5 63 3 137 -1 73 -5 358 -9 632 -4 275 -8 520 -9
545 -1 25 2 61 6 80 12 54 21 167 21 260 1 275 -58 482 -195 693 -129 198
-216 369 -235 467 -3 14 -6 32 -8 40 -2 8 -4 30 -4 48 l-1 33 -24 -18 c-14
-10 -38 -40 -53 -68 -24 -43 -28 -61 -28 -127 0 -77 1 -79 78 -230 42 -84 77
-158 77 -164 0 -5 -6 -18 -13 -28 -12 -17 -21 -11 -113 65 -391 327 -615 554
-707 718 -18 31 -32 58 -33 61 0 3 -4 12 -7 20 -4 8 -10 33 -15 55 l-8 40 -18
-45z"/>
<path d="M4818 3952 c-8 -57 -53 -144 -122 -235 -63 -84 -291 -318 -406 -418
-193 -168 -319 -269 -333 -269 -23 0 -31 36 -14 68 125 240 140 275 145 343 6
85 -13 140 -66 195 l-37 38 -6 -64 c-12 -121 -88 -286 -235 -510 -103 -157
-166 -315 -189 -470 -4 -25 -9 -58 -11 -75 -13 -80 -6 -289 13 -410 4 -22 6
-105 6 -185 -1 -160 -14 -1034 -17 -1145 -1 -38 -1 -73 1 -76 1 -3 24 -3 50 1
144 23 381 30 522 16 156 -15 246 -39 383 -102 121 -55 220 -83 363 -105 39
-5 84 -12 100 -15 17 -2 113 -7 215 -10 l185 -5 -25 21 c-39 32 -155 75 -259
95 -63 12 -265 70 -321 92 -169 67 -301 151 -406 258 -124 125 -257 333 -297
465 -59 192 7 527 152 765 41 68 142 200 201 265 18 19 76 82 130 140 85 92
126 139 199 225 35 42 99 131 111 155 10 19 1 14 -37 -20 -86 -78 -303 -214
-303 -191 0 6 4 11 9 11 6 0 54 34 108 76 110 85 246 218 286 279 25 39 29 53
43 160 l7 50 -49 -54 c-65 -72 -110 -114 -175 -161 -30 -22 -58 -43 -64 -47
-15 -12 -104 -64 -152 -88 -51 -26 -46 -14 7 20 120 76 295 236 380 349 l52
70 -6 70 c-4 39 -8 80 -11 91 -2 11 -4 24 -4 30 -1 5 -11 -8 -22 -30 -39 -73
-106 -159 -180 -232 -109 -106 -197 -169 -344 -246 -75 -40 -67 -31 41 47 238
171 421 381 470 538 10 32 8 45 -22 125 -19 48 -34 93 -34 98 0 6 -7 18 -14
28 -12 15 -14 13 -18 -21z"/>
</g>
</svg>
